# xmcd CD database file
#
# Track frame offsets:
#	187
#	15387
#	30085
#	45422
#	62042
#	89035
#	101632
#	122525
#	136252
#	154627
#
# Disc length: 2200 seconds
#
# Revision: 0
# Processed by: cddbd v1.4PL0 Copyright (c) Steve Scherf et al.
# Submitted via: CDex 1.50beta9
#
DISCID=6f08960a
DTITLE=Gary Smith Blues Band - UP The Line
DYEAR=1991
DGENRE=Blues
TTITLE0=Up The Line
TTITLE1=Fogtown Swing
TTITLE2=Temperature
TTITLE3=The Walk
TTITLE4=Death of Muddy Waters
TTITLE5=Rocket Ride
TTITLE6=I Can't Seem to Shake These Blues
TTITLE7=You Can't Hurt Me No More
TTITLE8=Weird Dream
TTITLE9=Twilight Time
EXTD=YEAR: 1991
EXTT0=
EXTT1=
EXTT2=
EXTT3=
EXTT4=
EXTT5=
EXTT6=
EXTT7=
EXTT8=
EXTT9=
PLAYORDER=
